<?xml version="1.0" encoding="utf-8"?>
<!-- Generator: Adobe Illustrator 16.0.0, SVG Export Plug-In . SVG Version: 6.00 Build 0)  -->
<!DOCTYPE svg PUBLIC "-//W3C//DTD SVG 1.1//EN" "http://www.w3.org/Graphics/SVG/1.1/DTD/svg11.dtd">
<svg version="1.1" id="Layer_1" xmlns="http://www.w3.org/2000/svg" xmlns:xlink="http://www.w3.org/1999/xlink" x="0px" y="0px"
	 width="400px" height="400px" viewBox="0 0 400 400" enable-background="new 0 0 400 400" xml:space="preserve">
<g>
	<path d="M155.13,110.172c0.472,0.243,1.188,0.31,1.899-0.034c0.712-0.34,1.109-0.942,1.215-1.455
		c0.132-0.641,0.111-1.255-1.278-4.149c-1.384-2.888-1.862-3.316-2.443-3.613c-0.468-0.243-1.171-0.285-1.884,0.054
		c-0.712,0.343-1.118,0.921-1.229,1.438c-0.131,0.636-0.099,1.278,1.287,4.169C154.083,109.473,154.553,109.876,155.13,110.172z"/>
	<polygon points="299.556,161.293 294.617,161.53 295.729,164.376 	"/>
	<path d="M250.422,286.844c-0.488-0.21-1.207-0.233-1.899,0.152c-0.686,0.388-1.042,1.01-1.115,1.532
		c-0.091,0.648-0.029,1.261,1.531,4.06c1.566,2.799,2.069,3.196,2.667,3.455c0.485,0.208,1.196,0.208,1.88-0.176
		c0.689-0.386,1.057-0.988,1.134-1.508c0.091-0.646,0.018-1.287-1.545-4.086C251.511,287.479,251.016,287.107,250.422,286.844z"/>
	<path d="M266.403,275.303c-0.518-0.113-1.225,0.003-1.822,0.517c-0.602,0.515-0.832,1.192-0.802,1.717
		c0.033,0.655,0.211,1.246,2.289,3.685c2.081,2.444,2.653,2.73,3.292,2.873c0.513,0.107,1.209-0.026,1.807-0.54
		c0.602-0.515,0.846-1.177,0.82-1.703c-0.037-0.648-0.233-1.259-2.314-3.694C267.59,275.711,267.036,275.437,266.403,275.303z"/>
	<polygon points="96.46,226.229 101.389,226.601 100.637,223.64 	"/>
	<path d="M267.328,125.537c0.635-0.132,1.196-0.394,3.302-2.81c2.11-2.412,2.318-3.019,2.362-3.667
		c0.029-0.526-0.205-1.192-0.798-1.716c-0.594-0.516-1.287-0.661-1.804-0.555c-0.635,0.128-1.21,0.412-3.32,2.826
		c-2.11,2.413-2.296,3-2.339,3.648c-0.033,0.531,0.186,1.215,0.776,1.731C266.104,125.516,266.811,125.643,267.328,125.537z"/>
	<path d="M101.827,244.646c-0.824,0.396-1.301,1.392-0.787,2.461l1.061,2.195l3.198-1.539l-1.059-2.2
		C103.728,244.498,102.649,244.249,101.827,244.646z"/>
	<path d="M288.222,249.919c0.652,0.352,1.534,0.374,2.092-0.667l1.366-2.564l-2.715-1.456l-1.371,2.567
		C287.037,248.842,287.569,249.571,288.222,249.919z"/>
	<path d="M294.359,252.923c0.608,0.325,1.436,0.351,1.993-0.692l1.269-2.372l-2.522-1.348l-1.268,2.371
		C293.273,251.926,293.75,252.6,294.359,252.923z"/>
	<path d="M76.711,200c0,68.091,55.199,123.288,123.29,123.288c68.092,0,123.291-55.197,123.291-123.288
		c0-68.089-55.199-123.289-123.291-123.289C131.91,76.711,76.711,131.911,76.711,200z M198.629,86.391l0.257,3.839l-7.603,0.514
		l0.206,3.07l6.495-0.431l0.259,3.839l-6.495,0.432l0.454,6.766l-4.306,0.288l-1.176-17.515L198.629,86.391z M177.608,88.588
		l0.964,3.725l-7.375,1.914l0.772,2.982l6.302-1.629l0.965,3.726l-6.301,1.628l1.698,6.566l-4.177,1.082l-4.404-16.998
		L177.608,88.588z M147.403,101.404c0.599-1.709,1.634-2.97,3.571-3.897c1.936-0.93,3.567-0.948,5.28-0.344
		c2.469,0.868,3.468,3.126,4.606,5.506c1.141,2.379,2.274,4.572,1.405,7.037c-0.601,1.713-1.638,2.973-3.572,3.901
		c-1.937,0.929-3.567,0.948-5.279,0.344c-2.469-0.869-3.47-3.126-4.608-5.506C147.665,106.066,146.533,103.874,147.403,101.404z
		 M200.001,113.697c47.665,0,86.3,38.64,86.3,86.303c0,47.667-38.635,86.307-86.3,86.307c-47.666,0-86.301-38.64-86.301-86.307
		C113.7,152.336,152.335,113.697,200.001,113.697z M123.315,116.195c3.331-3.045,6.731-2.176,8.988-0.326l-3.203,2.926
		c-1.154-0.751-2.098-0.754-3.187,0.243c-0.586,0.534-0.787,1.188-0.744,1.708c0.059,0.655,0.277,1.255,2.44,3.623
		c2.161,2.367,2.761,2.651,3.402,2.771c0.517,0.094,1.17-0.069,1.753-0.603c0.672-0.616,0.944-1.23,0.953-1.802
		c0.029-0.703-0.322-1.345-0.773-1.837l-0.164-0.184l-1.913,1.75l-2.429-2.657l5.08-4.644l1.646,1.803
		c1.915,2.091,2.702,3.614,2.633,5.511c-0.061,2.162-1.017,3.604-2.437,4.903c-1.513,1.378-3.123,1.917-4.938,1.836
		c-2.613-0.12-4.222-1.989-6.003-3.938c-1.78-1.946-3.499-3.72-3.379-6.332C121.123,119.136,121.75,117.628,123.315,116.195z
		 M106.229,136.051l10.452,0.625l-7.152-5.18l2.531-3.5l14.228,10.3l-2.212,3.058l-10.453-0.624l7.154,5.181l-2.531,3.495
		l-14.229-10.298L106.229,136.051z M99.322,147.649l15.717,7.811l-1.919,3.863l-15.716-7.814L99.322,147.649z M91.616,166.369
		l13.063,4.175l2.245-7.025l3.665,1.166l-3.557,11.14l-16.728-5.345L91.616,166.369z M88.181,179.761L92,180.236l-0.936,7.565
		l2.912,0.36l0.799-6.465l3.819,0.476l-0.8,6.463l3.058,0.379l0.938-7.563l3.817,0.469l-1.465,11.849l-17.429-2.159L88.181,179.761z
		 M86.976,210.177l9.603-3.567l-9.972-2.287l-0.283-4.484l17.882,4.708l0.201,3.199l-17.153,6.88L86.976,210.177z M89.63,226.359
		l15.438-10.503l1.109,4.37l-2.331,1.429l1.327,5.235l2.746,0.188l1.108,4.375l-18.579-1.871L89.63,226.359z M97.466,248.608
		c-1.691-3.513-0.113-6.602,2.488-7.853c2.154-1.04,4.153-0.356,5.374,0.59l4.951-6.6l2.172,4.51l-4.539,5.632l0.632,1.316
		l5.888-2.839l1.874,3.891l-15.82,7.618L97.466,248.608z M115.982,270.67l-3.082,2.304l-7.734-10.372l3.081-2.296l2.579,3.456
		l10.982-8.198l2.581,3.459l-10.983,8.194L115.982,270.67z M126.595,286.721l2.321-3.062l6.074,4.6l1.771-2.34l-5.188-3.93
		l2.323-3.064l5.186,3.93l1.859-2.457l-6.071-4.596l2.319-3.068l9.508,7.209l-10.594,13.982L126.595,286.721z M156.602,305.06
		l-3.885-1.882l2.943-6.078l-4.129-1.996l-2.945,6.078l-3.883-1.877l7.649-15.806l3.886,1.881l-3.031,6.253l4.131,2.005l3.029-6.262
		l3.883,1.88L156.602,305.06z M177.666,311.444l-12.531-3.258l0.97-3.726l4.174,1.087l3.454-13.273l4.178,1.085l-3.453,13.274
		l4.176,1.085L177.666,311.444z M200.001,308.488l-5.057-8.762h10.114L200.001,308.488z M236.423,307.552l-6.002-6.282l-1.556,8.549
		l-4.067,1.218l-5.041-16.815l4.136-1.239l2.413,8.055l1.137-4.877l2.646-0.794l3.637,3.447l-2.42-8.054l4.136-1.246l5.044,16.821
		L236.423,307.552z M258.687,295.11c-0.492,1.742-1.446,3.067-3.32,4.118c-1.873,1.05-3.506,1.165-5.248,0.67
		c-2.519-0.707-3.659-2.9-4.946-5.204c-1.291-2.302-2.558-4.421-1.848-6.938c0.492-1.742,1.45-3.068,3.323-4.119
		c1.874-1.047,3.503-1.167,5.249-0.671c2.514,0.712,3.652,2.901,4.942,5.205C258.129,290.474,259.398,292.588,258.687,295.11z
		 M273.663,286.48c-1.633,1.393-3.208,1.829-5.015,1.683c-2.609-0.207-4.147-2.134-5.86-4.144c-1.713-2.008-3.368-3.834-3.159-6.443
		c0.141-1.808,0.823-3.291,2.456-4.682c1.636-1.394,3.208-1.822,5.019-1.682c2.602,0.205,4.147,2.132,5.856,4.141
		c1.709,2.011,3.364,3.838,3.16,6.443C275.972,283.604,275.294,285.089,273.663,286.48z M288.787,270.634l-10.642-8.637
		l-4.643,5.726l-2.988-2.424l7.361-9.078l13.63,11.057L288.787,270.634z M299.636,254.292c-1.721,3.222-4.443,3.974-7.114,2.537
		c-1.76-0.938-2.089-2.681-2.161-3.329c-0.726,0.419-2.216,1.271-4.392,0.108c-2.956-1.581-3.458-4.504-1.986-7.265l3.608-6.742
		l15.478,8.277L299.636,254.292z M311.783,219.607l-5.358,1.551l4.362,3.479l-0.952,4.814l-7.398-6.695l-9.887,3.623l0.956-4.836
		l5.856-1.78l-4.738-3.878l0.959-4.84l7.766,7.117l9.388-3.367L311.783,219.607z M313.339,206.775l-3.845-0.064l0.124-7.619
		l-2.934-0.048l-0.105,6.507l-3.841-0.063l0.102-6.507l-3.083-0.046l-0.12,7.613l-3.845-0.058l0.197-11.935l17.545,0.285
		L313.339,206.775z M311.433,178.553l-13.492,2.465l1.319,7.252l-3.783,0.692l-2.1-11.5l17.275-3.156L311.433,178.553z
		 M306.324,160.321l-14.035,12.335l-1.637-4.204l2.136-1.709l-1.964-5.031l-2.748,0.144l-1.641-4.204l18.678-0.432L306.324,160.321z
		 M293.408,135.311l-3.029,2.366l-4.687-6.005l-2.427,1.895l4.001,5.129l-3.031,2.367l-4.006-5.133l-5.342,4.166l-2.653-3.398
		l13.842-10.791L293.408,135.311z M263.823,116.777c1.734-1.988,3.301-3.895,5.907-4.068c1.812-0.123,3.378,0.331,4.993,1.745
		c1.615,1.409,2.278,2.901,2.395,4.712c0.179,2.603-1.497,4.416-3.236,6.401c-1.735,1.985-3.302,3.891-5.908,4.064
		c-1.811,0.124-3.378-0.333-4.993-1.739c-1.614-1.413-2.274-2.905-2.395-4.713C260.411,120.57,262.084,118.763,263.823,116.777z
		 M241.926,94.402l10.862,4.966l-1.604,3.5l-6.932-3.169l-1.221,2.667l5.921,2.712l-1.604,3.5l-5.918-2.711l-1.282,2.805
		l6.928,3.168l-1.6,3.499l-10.853-4.968L241.926,94.402z M218.696,96.811c0.627-2.562,1.138-4.977,3.368-6.333
		c1.552-0.942,3.225-1.247,5.211-0.765c3.229,0.79,5.408,3.22,5.114,7.136l-4.261-1.04c-0.029-1.022-0.35-2.014-1.739-2.349
		c-0.769-0.191-1.417-0.019-1.825,0.313c-0.507,0.409-0.918,0.942-1.677,4.06c-0.758,3.114-0.641,3.776-0.379,4.37
		c0.211,0.483,0.714,0.938,1.48,1.125c1.388,0.333,2.121-0.4,2.62-1.29l4.268,1.039c-1.538,3.605-4.592,4.769-7.821,3.98
		c-1.99-0.485-3.338-1.524-4.278-3.072C217.414,101.752,218.07,99.376,218.696,96.811z M207.413,86.774l4.301,0.357l-1.458,17.502
		l-4.301-0.36L207.413,86.774z"/>
	<path d="M400,200c0-0.726-0.285-1.424-0.802-1.939l-96.708-96.707c0.061-0.052,0.131-0.094,0.185-0.153l12.595-12.594
		c1.068-1.069,1.068-2.804,0-3.874c-1.067-1.067-2.802-1.067-3.874,0l-12.595,12.591c-0.058,0.059-0.103,0.126-0.153,0.19
		l-96.71-96.712c-1.07-1.07-2.805-1.07-3.875,0l-96.712,96.712c-0.051-0.064-0.093-0.131-0.154-0.19L88.606,84.733
		c-1.069-1.067-2.805-1.067-3.874,0c-1.067,1.073-1.067,2.804,0,3.878L97.327,101.2c0.057,0.06,0.124,0.102,0.186,0.153
		l-96.71,96.707C0.288,198.576,0,199.274,0,200s0.288,1.425,0.802,1.939l96.712,96.712c-0.064,0.052-0.131,0.092-0.188,0.153
		l-12.594,12.589c-1.067,1.071-1.067,2.806,0,3.877c0.536,0.532,1.235,0.801,1.938,0.801c0.701,0,1.401-0.269,1.936-0.801
		l12.591-12.596c0.061-0.057,0.104-0.123,0.156-0.188l96.71,96.712c0.536,0.535,1.236,0.802,1.938,0.802
		c0.7,0,1.401-0.267,1.937-0.802l96.71-96.712c0.05,0.065,0.095,0.132,0.153,0.188l12.592,12.596
		c0.536,0.532,1.235,0.801,1.938,0.801s1.403-0.269,1.935-0.801c1.071-1.071,1.071-2.806,0-3.877l-12.592-12.589
		c-0.054-0.062-0.127-0.102-0.185-0.153l96.708-96.712C399.715,201.425,400,200.726,400,200z M200.001,393.385L6.615,200
		L200.001,6.613L393.389,200L200.001,393.385z"/>
	<path d="M137.903,202.485l49.315,24.658c0.391,0.199,0.809,0.29,1.222,0.29c1.005,0,1.974-0.553,2.453-1.515
		c0.677-1.354,0.128-2.996-1.226-3.679l-44.413-22.206l44.413-22.208c1.354-0.674,1.903-2.319,1.226-3.677
		c-0.676-1.354-2.325-1.9-3.675-1.227l-49.315,24.659c-0.927,0.465-1.516,1.412-1.516,2.452
		C136.385,201.073,136.976,202.022,137.903,202.485z"/>
	<path d="M210.504,177.827l44.415,22.208l-44.415,22.206c-1.353,0.679-1.903,2.324-1.224,3.679c0.48,0.962,1.45,1.515,2.449,1.515
		c0.415,0,0.83-0.091,1.228-0.29l49.313-24.658c0.925-0.463,1.516-1.412,1.516-2.451c0-1.035-0.591-1.986-1.516-2.449
		l-49.313-24.658c-1.353-0.675-3-0.131-3.677,1.226C208.601,175.508,209.151,177.153,210.504,177.827z"/>
	<circle cx="200.001" cy="200.001" r="12.329"/>
	<path d="M57.535,197.26H39.726c-1.512,0-2.741,1.229-2.741,2.74c0,1.515,1.229,2.74,2.741,2.74h17.809
		c1.512,0,2.739-1.226,2.739-2.74C60.273,198.489,59.047,197.26,57.535,197.26z"/>
	<path d="M342.468,202.74h17.808c1.512,0,2.741-1.226,2.741-2.74c0-1.511-1.229-2.74-2.741-2.74h-17.808
		c-1.516,0-2.74,1.229-2.74,2.74C339.728,201.515,340.953,202.74,342.468,202.74z"/>
	<path d="M199.315,339.732c-1.512,0-2.741,1.225-2.741,2.733v17.807c0,1.516,1.229,2.74,2.741,2.74c1.513,0,2.741-1.225,2.741-2.74
		v-17.807C202.056,340.957,200.828,339.732,199.315,339.732z"/>
	<path d="M196.575,39.726v17.809c0,1.513,1.229,2.738,2.741,2.738c1.513,0,2.741-1.225,2.741-2.738V39.726
		c0-1.51-1.228-2.739-2.741-2.739C197.803,36.986,196.575,38.216,196.575,39.726z"/>
</g>
</svg>
