<?xml version="1.0" encoding="utf-8"?>
<!-- Generator: Adobe Illustrator 16.0.0, SVG Export Plug-In . SVG Version: 6.00 Build 0)  -->
<!DOCTYPE svg PUBLIC "-//W3C//DTD SVG 1.1//EN" "http://www.w3.org/Graphics/SVG/1.1/DTD/svg11.dtd">
<svg version="1.1" id="Layer_1" xmlns="http://www.w3.org/2000/svg" xmlns:xlink="http://www.w3.org/1999/xlink" x="0px" y="0px"
	 width="400px" height="400px" viewBox="0 0 400 400" enable-background="new 0 0 400 400" xml:space="preserve">
<g>
	<path d="M127.209,54.281c0.767,0.395,1.929,0.503,3.082-0.056c1.155-0.552,1.799-1.529,1.971-2.359
		c0.215-1.039,0.181-2.037-2.073-6.731c-2.246-4.686-3.02-5.38-3.964-5.861c-0.76-0.394-1.9-0.462-3.056,0.088
		c-1.155,0.556-1.814,1.494-1.994,2.333c-0.212,1.032-0.159,2.073,2.088,6.764C125.511,53.146,126.274,53.8,127.209,54.281z"/>
	<polygon points="361.495,137.209 353.484,137.594 355.287,142.211 	"/>
	<path d="M281.791,340.879c-0.792-0.341-1.958-0.379-3.082,0.247c-1.113,0.629-1.69,1.638-1.809,2.485
		c-0.149,1.052-0.048,2.045,2.483,6.586c2.541,4.541,3.357,5.186,4.328,5.605c0.787,0.337,1.939,0.337,3.05-0.285
		c1.118-0.626,1.714-1.604,1.839-2.446c0.147-1.047,0.029-2.088-2.507-6.628C283.558,341.908,282.754,341.307,281.791,340.879z"/>
	<path d="M307.715,322.157c-0.84-0.184-1.987,0.005-2.956,0.838c-0.976,0.835-1.35,1.935-1.301,2.785
		c0.054,1.062,0.342,2.021,3.712,5.977c3.375,3.966,4.304,4.43,5.339,4.661c0.833,0.174,1.962-0.043,2.932-0.876
		c0.977-0.835,1.372-1.909,1.331-2.763c-0.06-1.052-0.378-2.042-3.754-5.993C309.641,322.819,308.742,322.374,307.715,322.157z"/>
	<polygon points="32.036,242.548 40.031,243.152 38.812,238.349 	"/>
	<path d="M309.215,79.205c1.029-0.214,1.94-0.64,5.357-4.558c3.423-3.913,3.761-4.896,3.832-5.949
		c0.048-0.854-0.332-1.935-1.295-2.783c-0.964-0.838-2.087-1.072-2.926-0.9c-1.03,0.208-1.963,0.668-5.386,4.584
		c-3.423,3.914-3.725,4.865-3.794,5.918c-0.054,0.86,0.301,1.971,1.258,2.809C307.23,79.171,308.376,79.377,309.215,79.205z"/>
	<path d="M40.743,272.427c-1.337,0.642-2.111,2.257-1.277,3.992l1.72,3.561l5.188-2.496l-1.717-3.569
		C43.825,272.186,42.075,271.781,40.743,272.427z"/>
	<path d="M343.109,280.979c1.058,0.57,2.488,0.606,3.394-1.082l2.216-4.16l-4.404-2.362l-2.224,4.165
		C341.188,279.232,342.05,280.415,343.109,280.979z"/>
	<path d="M353.065,285.853c0.987,0.527,2.33,0.568,3.233-1.124l2.058-3.848l-4.091-2.186l-2.058,3.846
		C351.303,284.234,352.077,285.328,353.065,285.853z"/>
	<path d="M0,200c0,110.458,89.542,200,199.999,200C310.457,400,400,310.458,400,200C400,89.546,310.457,0,199.999,0
		C89.542,0,0,89.546,0,200z M197.773,15.702l0.417,6.229l-12.333,0.834l0.333,4.979l10.537-0.698l0.42,6.228l-10.536,0.7
		l0.736,10.977l-6.986,0.467l-1.908-28.414L197.773,15.702z M163.672,19.267l1.564,6.043l-11.964,3.104l1.253,4.838l10.224-2.644
		l1.566,6.044l-10.222,2.642l2.755,10.652l-6.775,1.754l-7.145-27.573L163.672,19.267z M114.674,40.057
		c0.971-2.771,2.651-4.817,5.793-6.322c3.14-1.508,5.786-1.538,8.564-0.558c4.005,1.408,5.625,5.071,7.473,8.932
		c1.85,3.86,3.689,7.418,2.279,11.416c-0.975,2.778-2.657,4.823-5.794,6.329c-3.142,1.506-5.788,1.538-8.563,0.558
		c-4.004-1.408-5.629-5.071-7.476-8.932C115.1,47.619,113.264,44.063,114.674,40.057z M199.999,59.998
		c77.322,0,139.996,62.682,139.996,140.002c0,77.326-62.674,140.008-139.996,140.008c-77.322,0-139.996-62.682-139.996-140.008
		C60.002,122.68,122.676,59.998,199.999,59.998z M75.6,64.052c5.403-4.94,10.918-3.531,14.581-0.529l-5.196,4.747
		c-1.872-1.219-3.403-1.224-5.17,0.395c-0.951,0.865-1.277,1.927-1.207,2.771c0.095,1.062,0.45,2.036,3.958,5.877
		c3.505,3.84,4.479,4.301,5.519,4.494c0.839,0.152,1.898-0.111,2.844-0.978c1.09-0.999,1.53-1.995,1.545-2.923
		c0.047-1.141-0.522-2.182-1.254-2.98l-0.266-0.298l-3.103,2.838l-3.94-4.311l8.241-7.534l2.67,2.926
		c3.106,3.392,4.382,5.862,4.271,8.94c-0.098,3.507-1.65,5.845-3.953,7.953c-2.454,2.236-5.066,3.11-8.01,2.979
		c-4.239-0.194-6.849-3.228-9.738-6.388c-2.888-3.157-5.675-6.034-5.482-10.272C72.043,68.821,73.06,66.376,75.6,64.052z
		 M47.883,96.262l16.956,1.015l-11.601-8.403l4.105-5.678l23.081,16.709l-3.589,4.96l-16.956-1.012l11.605,8.405l-4.105,5.669
		l-23.083-16.706L47.883,96.262z M36.678,115.077l25.496,12.671l-3.114,6.266l-25.495-12.676L36.678,115.077z M24.177,145.443
		l21.19,6.773l3.642-11.396l5.944,1.892l-5.77,18.071l-27.136-8.671L24.177,145.443z M18.605,167.168l6.195,0.771l-1.518,12.272
		l4.723,0.583l1.295-10.487l6.195,0.772l-1.298,10.483l4.961,0.614l1.522-12.269l6.192,0.761l-2.377,19.221l-28.272-3.503
		L18.605,167.168z M16.651,216.509l15.578-5.787l-16.177-3.71l-0.458-7.273l29.008,7.638l0.326,5.189l-27.825,11.161L16.651,216.509
		z M20.956,242.761l25.042-17.038l1.8,7.09l-3.782,2.317l2.153,8.492l4.454,0.306l1.797,7.098l-30.138-3.035L20.956,242.761z
		 M33.668,278.854c-2.743-5.698-0.183-10.709,4.036-12.738c3.494-1.688,6.737-0.578,8.718,0.957l8.031-10.707l3.523,7.316
		l-7.363,9.136l1.025,2.136l9.551-4.605l3.04,6.312l-25.664,12.358L33.668,278.854z M63.704,314.642l-4.999,3.737l-12.547-16.826
		l4.997-3.725l4.183,5.606l17.815-13.299l4.187,5.611L59.523,309.04L63.704,314.642z M80.92,340.679l3.765-4.966l9.853,7.461
		l2.873-3.795l-8.415-6.375l3.769-4.971l8.412,6.374l3.016-3.985l-9.849-7.455l3.762-4.978l15.424,11.694l-17.186,22.683
		L80.92,340.679z M129.597,370.429l-6.303-3.053l4.774-9.859l-6.698-3.238l-4.777,9.86l-6.299-3.045l12.407-25.641l6.305,3.051
		l-4.917,10.145l6.703,3.252l4.913-10.158l6.299,3.05L129.597,370.429z M163.767,380.786l-20.329-5.285l1.574-6.043l6.771,1.763
		l5.602-21.531l6.778,1.76l-5.602,21.533l6.775,1.76L163.767,380.786z M199.999,375.991l-8.204-14.213h16.406L199.999,375.991z
		 M259.081,374.472l-9.736-10.19l-2.523,13.867l-6.598,1.976l-8.177-27.277l6.71-2.011l3.914,13.066l1.845-7.911l4.292-1.288
		l5.9,5.592l-3.926-13.064l6.709-2.022l8.182,27.288L259.081,374.472z M295.198,354.29c-0.797,2.825-2.346,4.976-5.385,6.68
		c-3.039,1.703-5.687,1.89-8.514,1.087c-4.086-1.146-5.935-4.705-8.023-8.441c-2.093-3.734-4.149-7.172-2.997-11.257
		c0.797-2.826,2.352-4.978,5.391-6.682c3.04-1.698,5.684-1.894,8.514-1.089c4.079,1.155,5.924,4.707,8.017,8.443
		C294.294,346.768,296.351,350.197,295.198,354.29z M319.492,340.289c-2.65,2.26-5.204,2.968-8.136,2.729
		c-4.233-0.336-6.727-3.461-9.506-6.721c-2.779-3.258-5.463-6.22-5.125-10.453c0.229-2.932,1.335-5.338,3.985-7.594
		c2.653-2.261,5.203-2.956,8.141-2.729c4.221,0.333,6.727,3.459,9.499,6.717c2.773,3.262,5.457,6.226,5.125,10.452
		C323.238,335.624,322.139,338.032,319.492,340.289z M344.025,314.583l-17.264-14.011l-7.532,9.289l-4.847-3.934l11.941-14.726
		l22.111,17.937L344.025,314.583z M361.625,288.073c-2.791,5.226-7.207,6.446-11.541,4.115c-2.854-1.521-3.388-4.349-3.505-5.4
		c-1.177,0.68-3.595,2.062-7.124,0.176c-4.795-2.564-5.61-7.306-3.222-11.784l5.854-10.938l25.108,13.428L361.625,288.073z
		 M381.33,231.808l-8.691,2.516l7.077,5.645l-1.544,7.81l-12-10.86l-16.039,5.877l1.55-7.845l9.499-2.888l-7.686-6.291l1.556-7.852
		l12.598,11.546l15.229-5.462L381.33,231.808z M383.854,210.991l-6.238-0.104l0.201-12.358l-4.759-0.078l-0.171,10.556l-6.231-0.103
		l0.166-10.556l-5.002-0.074l-0.194,12.35l-6.237-0.093l0.319-19.36l28.461,0.462L383.854,210.991z M380.763,165.209l-21.887,3.999
		l2.139,11.765l-6.136,1.123l-3.406-18.654l28.023-5.12L380.763,165.209z M372.474,135.633l-22.767,20.011l-2.655-6.82l3.465-2.772
		l-3.187-8.162l-4.457,0.234l-2.661-6.82l30.298-0.701L372.474,135.633z M351.522,95.061l-4.913,3.838l-7.603-9.741l-3.938,3.073
		l6.49,8.32l-4.917,3.84l-6.499-8.326l-8.667,6.758l-4.303-5.513l22.455-17.506L351.522,95.061z M303.53,64.995
		c2.813-3.226,5.354-6.318,9.582-6.601c2.939-0.198,5.48,0.537,8.099,2.83c2.619,2.285,3.696,4.707,3.884,7.646
		c0.29,4.223-2.429,7.162-5.249,10.383c-2.814,3.221-5.356,6.312-9.583,6.593c-2.938,0.201-5.481-0.539-8.099-2.821
		c-2.619-2.292-3.688-4.713-3.884-7.646C297.995,71.148,300.709,68.217,303.53,64.995z M268.008,28.698l17.62,8.056l-2.602,5.678
		l-11.245-5.142l-1.98,4.326l9.606,4.401l-2.602,5.677l-9.601-4.398l-2.08,4.55l11.238,5.14l-2.595,5.676l-17.606-8.059
		L268.008,28.698z M230.326,32.605c1.018-4.157,1.846-8.073,5.464-10.274c2.519-1.529,5.232-2.023,8.453-1.241
		c5.238,1.282,8.773,5.225,8.295,11.576l-6.912-1.687c-0.048-1.658-0.567-3.267-2.82-3.811c-1.247-0.311-2.3-0.03-2.961,0.508
		c-0.823,0.663-1.49,1.529-2.72,6.586c-1.229,5.052-1.04,6.125-0.615,7.089c0.343,0.783,1.158,1.521,2.4,1.824
		c2.252,0.54,3.44-0.649,4.25-2.093l6.922,1.686c-2.494,5.849-7.449,7.735-12.687,6.456c-3.227-0.787-5.415-2.473-6.94-4.984
		C228.245,40.621,229.31,36.768,230.326,32.605z M212.023,16.323l6.976,0.579l-2.364,28.393l-6.977-0.584L212.023,16.323z"/>
</g>
</svg>
